<svg width="49" height="49" viewBox="0 0 49 49" fill="none" xmlns="http://www.w3.org/2000/svg">
<g clip-path="url(#clip0_1644_913)">
<path d="M22.856 48.0532C23.2633 48.3441 23.7512 48.5004 24.2517 48.5004C24.7522 48.5004 25.2402 48.3441 25.6474 48.0532C26.379 47.5358 43.573 35.121 43.5032 19.6236C43.5032 9.00877 34.8665 0.37207 24.2517 0.37207C13.6369 0.37207 5.00021 9.00877 5.00021 19.6115C4.93043 35.121 22.1244 47.5358 22.856 48.0532ZM24.2517 5.18494C32.2146 5.18494 38.6903 11.6607 38.6903 19.6356C38.7409 30.3154 28.1309 39.905 24.2517 43.0502C20.3749 39.9026 9.76255 30.3105 9.81309 19.6236C9.81309 11.6607 16.2888 5.18494 24.2517 5.18494Z" fill="#144728"/>
<path d="M28.7445 13.1797L33.7065 25.6997L35.1705 25.7037V27.5857H27.6685V25.7037H28.7745L27.6985 22.5937L24.5605 27.7337L21.4225 22.5937L20.3465 25.7037H21.4525V27.5857H13.9805V25.7037H15.4145L20.3765 13.1797L24.5605 20.4997L28.7445 13.1797Z" fill="#144728"/>
</g>
<defs>
<clipPath id="clip0_1644_913">
<rect width="48" height="48" fill="white" transform="translate(0.5 0.5)"/>
</clipPath>
</defs>
</svg>
